<?xml version="1.0" encoding="UTF-8" standalone="no"?>
<svg
   viewBox="0 0 128 128"
   xml:space="preserve"
   version="1.1"
   id="svg1"
   sodipodi:docname="gitlab.svg"
   inkscape:version="1.4.2 (ebf0e940d0, 2025-05-08)"
   xmlns:inkscape="http://www.inkscape.org/namespaces/inkscape"
   xmlns:sodipodi="http://sodipodi.sourceforge.net/DTD/sodipodi-0.dtd"
   xmlns="http://www.w3.org/2000/svg"
   xmlns:svg="http://www.w3.org/2000/svg"><defs
     id="defs1" /><sodipodi:namedview
     id="namedview1"
     pagecolor="#ffffff"
     bordercolor="#000000"
     borderopacity="0.25"
     inkscape:showpageshadow="2"
     inkscape:pageopacity="0.0"
     inkscape:pagecheckerboard="0"
     inkscape:deskcolor="#d1d1d1"
     inkscape:zoom="9.0625"
     inkscape:cx="64"
     inkscape:cy="64"
     inkscape:window-width="2560"
     inkscape:window-height="1371"
     inkscape:window-x="0"
     inkscape:window-y="0"
     inkscape:window-maximized="1"
     inkscape:current-layer="svg1" /><path
     fill="#E24329"
     d="m124.758 51.396-.177-.452-17.107-44.648a4.459 4.459 0 0 0-1.761-2.121 4.581 4.581 0 0 0-5.236.281 4.578 4.578 0 0 0-1.518 2.304L87.407 42.102H40.632L29.081 6.761a4.492 4.492 0 0 0-1.518-2.31 4.581 4.581 0 0 0-5.236-.281 4.502 4.502 0 0 0-1.761 2.121L3.425 50.918l-.17.452c-5.059 13.219-.763 28.192 10.537 36.716l.059.046.157.111 26.061 19.516 12.893 9.758 7.854 5.93a5.283 5.283 0 0 0 6.388 0l7.854-5.93 12.893-9.758 26.218-19.634.065-.052c11.274-8.526 15.562-23.472 10.524-36.677z"
     id="path1"
     style="fill:#000000" /></svg>
